<svg xmlns="http://www.w3.org/2000/svg" id="a" data-name="Layer 1" viewBox="0 0 512 512"><defs><linearGradient id="b" x1="16.43" x2="256.01" y1="370.59" y2="370.59" gradientUnits="userSpaceOnUse"><stop offset=".35" stop-color="#ef476f"/><stop offset=".6" stop-color="#ed466e"/><stop offset=".69" stop-color="#e6456b" stop-opacity=".99"/><stop offset=".76" stop-color="#db4367" stop-opacity=".99"/><stop offset=".81" stop-color="#ca3f60" stop-opacity=".97"/><stop offset=".85" stop-color="#b53b58" stop-opacity=".96"/><stop offset=".89" stop-color="#9a364e" stop-opacity=".94"/><stop offset=".93" stop-color="#7a3042" stop-opacity=".91"/><stop offset=".96" stop-color="#562933" stop-opacity=".89"/><stop offset=".99" stop-color="#2e2124" stop-opacity=".86"/><stop offset="1" stop-color="#231f20" stop-opacity=".85"/></linearGradient><linearGradient id="c" x1="370.17" x2="370.17" y1="496" y2="256" gradientUnits="userSpaceOnUse"><stop offset=".35" stop-color="#118ab2"/><stop offset=".62" stop-color="#1188b0"/><stop offset=".72" stop-color="#1283a9" stop-opacity=".99"/><stop offset=".79" stop-color="#137b9e" stop-opacity=".98"/><stop offset=".84" stop-color="#156f8d" stop-opacity=".96"/><stop offset=".89" stop-color="#185f78" stop-opacity=".94"/><stop offset=".93" stop-color="#1b4c5e" stop-opacity=".91"/><stop offset=".97" stop-color="#1f363f" stop-opacity=".88"/><stop offset="1" stop-color="#231f20" stop-opacity=".85"/></linearGradient><linearGradient id="d" x1="495.57" x2="256.01" y1="141.41" y2="141.41" gradientUnits="userSpaceOnUse"><stop offset=".35" stop-color="#ffd100"/><stop offset=".6" stop-color="#fdcf00"/><stop offset=".69" stop-color="#f6ca01" stop-opacity=".99"/><stop offset=".75" stop-color="#eac002" stop-opacity=".99"/><stop offset=".8" stop-color="#dab305" stop-opacity=".98"/><stop offset=".85" stop-color="#c4a208" stop-opacity=".96"/><stop offset=".89" stop-color="#aa8c0c" stop-opacity=".94"/><stop offset=".92" stop-color="#8a7210" stop-opacity=".92"/><stop offset=".95" stop-color="#655516" stop-opacity=".9"/><stop offset=".98" stop-color="#3d341c" stop-opacity=".87"/><stop offset="1" stop-color="#231f20" stop-opacity=".85"/></linearGradient><linearGradient id="e" x1="141.83" x2="141.83" y1="16" y2="256" gradientUnits="userSpaceOnUse"><stop offset=".35" stop-color="#073b4c"/><stop offset=".69" stop-color="#08394a"/><stop offset=".82" stop-color="#0c3543"/><stop offset=".91" stop-color="#142d37"/><stop offset=".98" stop-color="#1e2326"/><stop offset="1" stop-color="#231f20"/></linearGradient><style>.g{fill:#fdfdfd}</style></defs><path fill="url(#b)" d="M256.01 485.18c-6.8 6.68-16.11 10.82-26.4 10.82H54.05c-20.77 0-37.62-16.84-37.62-37.62V282.82c0-10.49 4.3-19.99 11.24-26.8 6.8-6.69 16.11-10.82 26.38-10.82h175.56c10.27 0 19.58 4.12 26.38 10.82-6.93 6.83-11.22 16.32-11.22 26.8v175.56c0 10.5 4.3 20 11.24 26.8Z"/><path fill="url(#c)" d="M495.57 282.82v175.56c0 20.79-16.85 37.62-37.62 37.62H282.39c-10.28 0-19.59-4.12-26.38-10.82-6.94-6.8-11.24-16.3-11.24-26.8V282.82c0-10.49 4.3-19.97 11.22-26.8l.02-.02c6.79 6.69 16.1 10.82 26.38 10.82h175.56c10.28 0 19.59-4.12 26.38-10.8 6.94 6.82 11.24 16.32 11.24 26.8Z"/><path fill="url(#d)" d="M495.57 53.63v175.56c0 10.49-4.3 19.99-11.24 26.82-6.79 6.68-16.1 10.8-26.38 10.8H282.39c-10.28 0-19.59-4.12-26.38-10.82 6.93-6.83 11.22-16.32 11.22-26.8V53.63c0-10.49-4.3-19.97-11.22-26.8 6.79-6.69 16.1-10.82 26.38-10.82h175.56c20.77 0 37.62 16.85 37.62 37.62Z"/><path fill="url(#e)" d="M267.23 53.62v175.56c0 10.49-4.3 19.97-11.22 26.8l-.02.02c-6.8-6.69-16.11-10.82-26.38-10.82H54.05c-10.27 0-19.58 4.12-26.38 10.82-6.94-6.83-11.24-16.33-11.24-26.82V53.62C16.43 32.85 33.28 16 54.05 16h175.56c10.28 0 19.59 4.14 26.4 10.82 6.93 6.83 11.22 16.32 11.22 26.8Z"/><path d="m195.67 337.14-16.14 15.38c-10.98-11.6-23.33-17.4-37.05-17.4-11.58 0-21.34 3.96-29.27 11.88-7.93 7.92-11.9 17.68-11.9 29.28 0 8.08 1.76 15.26 5.27 21.53s8.48 11.19 14.9 14.76c6.42 3.57 13.56 5.36 21.41 5.36 6.69 0 12.81-1.25 18.36-3.75 5.54-2.5 11.63-7.05 18.28-13.65l15.64 16.32c-8.95 8.74-17.41 14.8-25.38 18.18-7.97 3.38-17.06 5.07-27.27 5.07-18.84 0-34.26-5.97-46.27-17.92-12-11.95-18-27.26-18-45.94 0-12.08 2.73-22.82 8.2-32.22 5.47-9.39 13.29-16.95 23.48-22.66 10.19-5.71 21.16-8.57 32.92-8.57 10 0 19.62 2.11 28.88 6.33 9.26 4.22 17.23 10.23 23.94 18.02ZM112.94 69.5h23.07v99.21h33.62v22h-56.69V69.5ZM342.25 69.5h24.44c13.39 0 22.92 1.19 28.6 3.58s10.25 6.36 13.7 11.91c3.46 5.55 5.19 12.11 5.19 19.69 0 7.97-1.91 14.63-5.73 19.98-3.82 5.36-9.57 9.41-17.26 12.15l28.71 53.89h-25.22l-27.26-51.33h-2.11v51.33h-23.07V69.49Zm23.07 47.38h7.23c7.34 0 12.39-.96 15.15-2.89s4.15-5.13 4.15-9.59c0-2.64-.68-4.94-2.05-6.9-1.37-1.96-3.2-3.36-5.5-4.22-2.3-.85-6.52-1.28-12.65-1.28h-6.33v24.88ZM337.48 315.83h23.32v41.79l32.9-41.79h27.7l-42.33 54.09 46.44 67.11h-27.36l-37.37-53.85v53.85h-23.32V315.82Z" class="g"/></svg>