<svg xmlns="http://www.w3.org/2000/svg" id="a" data-name="Layer 1" viewBox="0 0 512 512"><defs><style>.b{fill:#222;stroke:#fff;stroke-miterlimit:10;stroke-width:3px}.c{fill:#fdfdfd}</style></defs><path d="M256.01 485.18c-6.8 6.68-16.11 10.82-26.4 10.82H54.05c-20.77 0-37.62-16.84-37.62-37.62V282.82c0-10.49 4.3-19.99 11.24-26.8 6.8-6.69 16.11-10.82 26.38-10.82h175.56c10.27 0 19.58 4.12 26.38 10.82-6.93 6.83-11.22 16.32-11.22 26.8v175.56c0 10.5 4.3 20 11.24 26.8Z" class="b"/><path d="M495.57 282.82v175.56c0 20.79-16.85 37.62-37.62 37.62H282.39c-10.28 0-19.59-4.12-26.38-10.82-6.94-6.8-11.24-16.3-11.24-26.8V282.82c0-10.49 4.3-19.97 11.22-26.8l.02-.02c6.79 6.69 16.1 10.82 26.38 10.82h175.56c10.28 0 19.59-4.12 26.38-10.8 6.94 6.82 11.24 16.32 11.24 26.8Z" class="b"/><path d="M495.57 53.63v175.56c0 10.49-4.3 19.99-11.24 26.82-6.79 6.68-16.1 10.8-26.38 10.8H282.39c-10.28 0-19.59-4.12-26.38-10.82 6.93-6.83 11.22-16.32 11.22-26.8V53.63c0-10.49-4.3-19.97-11.22-26.8 6.79-6.69 16.1-10.82 26.38-10.82h175.56c20.77 0 37.62 16.85 37.62 37.62Z" class="b"/><path d="M267.23 53.62v175.56c0 10.49-4.3 19.97-11.22 26.8l-.02.02c-6.8-6.69-16.11-10.82-26.38-10.82H54.05c-10.27 0-19.58 4.12-26.38 10.82-6.94-6.83-11.24-16.33-11.24-26.82V53.62C16.43 32.85 33.28 16 54.05 16h175.56c10.28 0 19.59 4.14 26.4 10.82 6.93 6.83 11.22 16.32 11.22 26.8Z" class="b"/><path d="m195.67 337.14-16.14 15.38c-10.98-11.6-23.33-17.4-37.05-17.4-11.58 0-21.34 3.96-29.27 11.88s-11.9 17.68-11.9 29.28c0 8.08 1.76 15.26 5.27 21.53 3.51 6.27 8.48 11.19 14.9 14.76 6.42 3.57 13.56 5.36 21.41 5.36 6.7 0 12.81-1.25 18.36-3.75 5.54-2.5 11.63-7.05 18.28-13.65l15.64 16.32c-8.95 8.74-17.41 14.8-25.38 18.18s-17.06 5.07-27.27 5.07c-18.84 0-34.26-5.97-46.27-17.92-12-11.95-18-27.26-18-45.94 0-12.08 2.73-22.82 8.2-32.22 5.46-9.39 13.29-16.95 23.48-22.66 10.19-5.71 21.16-8.57 32.92-8.57 10 0 19.62 2.11 28.88 6.33 9.26 4.22 17.23 10.23 23.94 18.02ZM112.94 69.5h23.07v99.21h33.62v22h-56.69V69.5ZM342.25 69.5h24.44c13.39 0 22.92 1.19 28.6 3.58s10.25 6.36 13.7 11.91c3.46 5.55 5.19 12.11 5.19 19.69 0 7.97-1.91 14.63-5.73 19.98s-9.57 9.41-17.26 12.15l28.71 53.89h-25.22l-27.26-51.33h-2.11v51.33h-23.07V69.49Zm23.07 47.38h7.23c7.34 0 12.39-.96 15.15-2.89s4.15-5.12 4.15-9.59c0-2.64-.68-4.94-2.05-6.9-1.37-1.96-3.2-3.36-5.5-4.22-2.3-.85-6.52-1.28-12.65-1.28h-6.33v24.88ZM337.48 315.83h23.32v41.79l32.9-41.79h27.7l-42.33 54.09 46.44 67.11h-27.36l-37.37-53.85v53.85h-23.32V315.82Z" class="c"/></svg>